<svg width="42" height="48" viewBox="0 0 42 48" fill="none" xmlns="http://www.w3.org/2000/svg">
<g clip-path="url(#clip0_354_90)">
<path fill-rule="evenodd" clip-rule="evenodd" d="M15.5061 2.7392C12.6499 4.22707 10.3131 5.48611 10.3136 5.53732C10.3148 5.66948 17.1686 9.14051 17.4119 9.13204C17.5226 9.12834 18.3253 8.75882 19.1957 8.31099L20.7785 7.49691L22.507 8.38543L24.2355 9.27411L27.0663 8.00213C31.3316 6.08546 31.7747 5.87543 31.7052 5.80486C31.6131 5.71124 30.0832 4.88935 25.9324 2.70414C23.9265 1.648 21.9795 0.612488 21.6057 0.402953C21.232 0.193417 20.8752 0.02486 20.8128 0.0281228C20.7505 0.0313855 18.3624 1.25138 15.5061 2.7392ZM2.97868 9.22633L0.00536419 10.7622V17.5026C0.00536419 21.2098 0.0444067 24.2429 0.0922973 24.2429C0.140022 24.2429 1.6029 23.6088 3.34305 22.8337L6.50699 21.4246V14.3197L8.05309 15.1621C9.2445 15.8106 10.4366 16.4578 11.6295 17.1036L13.6597 18.2028L14.5631 17.7943C15.1296 17.5377 15.6951 17.2786 16.2594 17.017C16.6954 16.814 17.7658 16.3318 18.638 15.9455C19.5101 15.5589 20.3175 15.1702 20.4319 15.0816C20.584 14.9639 18.7297 13.9392 13.5732 11.2913C9.68641 9.29529 6.38157 7.66856 6.22916 7.67636C6.07675 7.68415 4.61404 8.38155 2.97868 9.22633ZM32.2411 9.65762C30.2161 10.5718 28.5578 11.3563 28.5559 11.401C28.5542 11.4457 29.6579 12.102 31.0087 12.8592C32.3595 13.6165 33.4648 14.2766 33.4648 14.3264C33.4648 14.376 32.2694 14.9551 30.8087 15.6136C29.3477 16.272 25.6549 17.9397 22.6024 19.3196L12.3743 23.9429C9.80138 25.1059 7.48222 26.1543 7.22059 26.2728C1.96534 28.6518 0.52088 29.3119 0.322515 29.4252C0.123045 29.5393 0.0778638 30.2021 0.0423605 33.5286L0 37.4961L2.65887 38.8509L5.31769 40.2056L9.00455 38.5417C11.0324 37.6266 12.6914 36.83 12.6914 36.7713C12.6914 36.7128 12.3167 36.4686 11.8589 36.2285C11.4009 35.9884 10.4555 35.4568 9.75774 35.0471C9.06007 34.6372 8.36438 34.2612 8.21164 34.2114C8.05895 34.1616 7.93624 34.0747 7.93873 34.0179C7.94127 33.9613 9.5648 33.1902 11.5463 32.3041C15.3951 30.5833 18.3405 29.257 24.6638 26.3974C27.4914 25.119 30.3193 23.8414 33.1476 22.5645C35.6333 21.4426 38.5233 20.1322 39.5699 19.6527L41.4728 18.7807L41.5152 14.768L41.5577 10.7555L38.8609 9.37133C37.3776 8.61011 36.1098 7.98914 36.0433 7.99141C35.9769 7.99351 34.2659 8.74322 32.2411 9.65762ZM40.7503 24.1339C40.3529 24.328 39.568 24.6914 39.006 24.9414C38.4441 25.1914 37.3776 25.6726 36.6363 26.0109L35.2884 26.6257L35.2576 30.1485C35.2406 32.0859 35.1693 33.6626 35.0991 33.6523C34.9395 33.6286 32.4133 32.333 29.8739 30.9723C28.041 29.9903 27.9259 29.9512 27.4952 30.1645C27.2462 30.2879 25.758 30.9553 24.1881 31.648C22.6182 32.3405 21.2826 32.9524 21.2198 33.0078C21.1571 33.0631 24.3167 34.7756 28.2413 36.8135L35.3767 40.5189L38.4249 38.9421C40.1012 38.075 41.5266 37.284 41.5922 37.1845C41.74 36.9608 41.7273 23.7502 41.5794 23.7681C41.5209 23.7751 41.1477 23.9398 40.7503 24.1339ZM23.871 39.6398C23.3423 39.8671 22.8137 40.0947 22.2852 40.3227C20.6895 41.013 21.0022 41.0359 19.1037 40.0908C17.8393 39.4614 17.2942 39.2672 17.0576 39.3615C16.8802 39.4322 15.3529 40.1193 13.6635 40.8883C11.9742 41.6574 10.5333 42.2866 10.4617 42.2866C9.75288 42.2866 10.9312 42.9907 15.4782 45.2843L20.8108 47.974L23.0545 46.8663C24.2885 46.2571 26.7775 45.0371 28.5857 44.1552C30.3938 43.2732 31.8508 42.5287 31.8235 42.5006C31.7961 42.4726 30.281 41.6946 28.4567 40.7718L25.1396 39.094L23.871 39.6398Z" fill="#86C8BC"/>
</g>
<defs>
<clipPath id="clip0_354_90">
<rect width="41.74" height="47.9991" fill="white"/>
</clipPath>
</defs>
</svg>
